<svg id="レイヤー_1" data-name="レイヤー 1" xmlns="http://www.w3.org/2000/svg" width="27" height="27" viewBox="0 0 27 27"><defs><style>.cls-1{fill:#fff;}</style></defs><path class="cls-1" d="M13.86,0A13.86,13.86,0,1,0,27.72,13.86,13.87,13.87,0,0,0,13.86,0Zm.27,11.77h0a2.59,2.59,0,0,1-.07-.63,2.77,2.77,0,0,1,4.8-1.9,5.36,5.36,0,0,0,1.47-.52l.29-.14a2.78,2.78,0,0,1-.88,1.27,2.62,2.62,0,0,1-.34.24h0a5.23,5.23,0,0,0,1.31-.32l.27-.1a5.6,5.6,0,0,1-1.37,1.42c0,.12,0,.24,0,.36A7.89,7.89,0,0,1,7.48,18.11a4.87,4.87,0,0,0,.66,0A5.6,5.6,0,0,0,11,17.37a5.81,5.81,0,0,0,.61-.4h0a2.79,2.79,0,0,1-2.42-1.5c-.06-.14-.12-.28-.17-.43a2.24,2.24,0,0,0,.52.05,3.07,3.07,0,0,0,.53-.05l.2,0h0A2.79,2.79,0,0,1,8,12.26v0H8a2.62,2.62,0,0,0,1,.32l.26,0,0,0h0A2.77,2.77,0,0,1,8,10.27,2.69,2.69,0,0,1,8.34,9l.08-.16a7.91,7.91,0,0,0,5,2.82c.22,0,.45.06.68.07Z"/></svg>